<svg width="22" height="20" viewBox="0 0 22 20" fill="none" xmlns="http://www.w3.org/2000/svg">
<path d="M10.0846 0.859336C10.3845 -0.0609409 11.6864 -0.06094 11.9862 0.859337L13.7373 6.23373C13.8714 6.64536 14.2552 6.92394 14.6881 6.92394H20.3489C21.3183 6.92394 21.7206 8.16497 20.9356 8.73373L16.3607 12.0484C16.0093 12.303 15.8622 12.7553 15.9966 13.168L17.7452 18.5346C18.0452 19.4554 16.9919 20.2224 16.2077 19.6542L11.6221 16.3318C11.2721 16.0782 10.7987 16.0782 10.4487 16.3318L5.86315 19.6542C5.07889 20.2224 4.0256 19.4554 4.32562 18.5346L6.0742 13.168C6.20865 12.7553 6.06157 12.303 5.71011 12.0484L1.13524 8.73373C0.350231 8.16497 0.752562 6.92394 1.72196 6.92394H7.38271C7.81564 6.92394 8.1994 6.64536 8.33352 6.23373L10.0846 0.859336Z" fill="#070707"/>
</svg>
